                                                                        S      1
,,10HuSIP-11 v1,7HuSIP-11,7Hunknown,7Hunknown,32,38,7,99,15,,1.,2,2HMM, G      1
1,0.08,15H20240318.144702,0.01,10000.,7Hunknown,7Hunknown,11,0,15H202403G      2
18.134644;                                                              G      3
     186       1                                                00000000D      1
     186            -287       1       0                               0D      2
     186       2                                                00000000D      3
     186            -291       1       0                               0D      4
     186       3                                                00000000D      5
     186            -291       1       0                               0D      6
     514       4                                                00010000D      7
     514                       2       1                               0D      8
     514       6                                                00010000D      9
     514                       1       1                               0D     10
     514       7                                                00010000D     11
     514                       1       1                               0D     12
     510       8                                                00010000D     13
     510            -287       1       1                               0D     14
     510       9                                                00010000D     15
     510            -287       1       1                               0D     16
     510      10                                                00010000D     17
     510            -287       1       1                               0D     18
     510      11                                                00010000D     19
     510            -287       1       1                               0D     20
     510      12                                                00010000D     21
     510            -287       1       1                               0D     22
     510      13                                                00010000D     23
     510            -289       1       1                               0D     24
     510      14                                                00010000D     25
     510            -289       1       1                               0D     26
     510      15                                                00010000D     27
     510            -287       1       1                               0D     28
     510      16                                                00010000D     29
     510            -287       1       1                               0D     30
     510      17                                                00010000D     31
     510            -287       1       1                               0D     32
     510      18                                                00010000D     33
     510            -287       1       1                               0D     34
     510      19                                                00010000D     35
     510            -287       1       1                               0D     36
     510      20                                                00010000D     37
     510            -287       1       1                               0D     38
     510      21                                                00010000D     39
     510            -291       1       1                               0D     40
     510      22                                                00010000D     41
     510            -291       1       1                               0D     42
     510      23                                                00010000D     43
     510            -291       1       1                               0D     44
     510      24                                                00010000D     45
     510            -291       1       1                               0D     46
     510      25                                                00010000D     47
     510            -291       1       1                               0D     48
     510      26                                                00010000D     49
     510            -291       1       1                               0D     50
     510      27                                                00010000D     51
     510            -291       1       1                               0D     52
     510      28                                                00010000D     53
     510            -291       1       1                               0D     54
     510      29                                                00010000D     55
     510            -291       1       1                               0D     56
     510      30                                                00010000D     57
     510            -291       1       1                               0D     58
     510      31                                                00010000D     59
     510            -291       1       1                               0D     60
     510      32                                                00010000D     61
     510            -291       1       1                               0D     62
     508      33                                                00010000D     63
     508                       1       1                               0D     64
     508      34                                                00010000D     65
     508                       1       1                               0D     66
     508      35                                                00010000D     67
     508                       1       1                               0D     68
     508      36                                                00010000D     69
     508                       1       1                               0D     70
     508      37                                                00010000D     71
     508                       1       1                               0D     72
     508      38                                                00010000D     73
     508                       1       1                               0D     74
     508      39                                                00010000D     75
     508                       1       1                               0D     76
     508      40                                                00010000D     77
     508                       1       1                               0D     78
     508      41                                                00010000D     79
     508                       1       1                               0D     80
     508      42                                                00010000D     81
     508                       1       1                               0D     82
     508      43                                                00010000D     83
     508                       1       1                               0D     84
     508      44                                                00010000D     85
     508                       1       1                               0D     86
     508      45                                                00010000D     87
     508                       1       1                               0D     88
     508      46                                                00010000D     89
     508                       1       1                               0D     90
     508      47                                                00010000D     91
     508                       1       1                               0D     92
     508      48                                                00010000D     93
     508                       1       1                               0D     94
     508      49                                                00010000D     95
     508                       1       1                               0D     96
     508      50                                                00010000D     97
     508                       1       1                               0D     98
     508      51                                                00010000D     99
     508                       1       1                               0D    100
     508      52                                                00010000D    101
     508                       1       1                               0D    102
     508      53                                                00010000D    103
     508                       1       1                               0D    104
     508      54                                                00010000D    105
     508                       1       1                               0D    106
     508      55                                                00010000D    107
     508                       1       1                               0D    108
     508      56                                                00010000D    109
     508                       1       1                               0D    110
     508      57                                                00010000D    111
     508                       1       1                               0D    112
     508      58                                                00010000D    113
     508                       1       1                               0D    114
     508      59                                                00010000D    115
     508                       1       1                               0D    116
     126      60                                                00010000D    117
     126       0               2       0                               0D    118
     126      62                                                00010000D    119
     126       0               2       0                               0D    120
     126      64                                                00010000D    121
     126       0               2       0                               0D    122
     126      66                                                00010000D    123
     126       0               2       0                               0D    124
     126      68                                                00010000D    125
     126       0               2       0                               0D    126
     126      70                                                00010000D    127
     126       0               2       0                               0D    128
     126      72                                                00010000D    129
     126       0               2       0                               0D    130
     126      74                                                00010000D    131
     126       0               2       0                               0D    132
     126      76                                                00010000D    133
     126       0               2       0                               0D    134
     126      78                                                00010000D    135
     126       0               2       0                               0D    136
     126      80                                                00010000D    137
     126       0               2       0                               0D    138
     126      82                                                00010000D    139
     126       0               2       0                               0D    140
     126      84                                                00010000D    141
     126       0              12       0                               0D    142
     126      96                                                00010000D    143
     126       0               3       0                               0D    144
     126      99                                                00010000D    145
     126       0              12       0                               0D    146
     126     111                                                00010000D    147
     126       0               2       0                               0D    148
     126     113                                                00010000D    149
     126       0               2       0                               0D    150
     126     115                                                00010000D    151
     126       0               2       0                               0D    152
     126     117                                                00010000D    153
     126       0               2       0                               0D    154
     126     119                                                00010000D    155
     126       0               2       0                               0D    156
     126     121                                                00010000D    157
     126       0               2       0                               0D    158
     126     123                                                00010000D    159
     126       0               2       0                               0D    160
     126     125                                                00010000D    161
     126       0               2       0                               0D    162
     126     127                                                00010000D    163
     126       0               2       0                               0D    164
     126     129                                                00010000D    165
     126       0               2       0                               0D    166
     126     131                                                00010000D    167
     126       0               2       0                               0D    168
     126     133                                                00010000D    169
     126       0               2       0                               0D    170
     126     135                                                00010000D    171
     126       0               2       0                               0D    172
     126     137                                                00010000D    173
     126       0               2       0                               0D    174
     126     139                                                00010000D    175
     126       0               2       0                               0D    176
     126     141                                                00010000D    177
     126       0               2       0                               0D    178
     126     143                                                00010000D    179
     126       0               2       0                               0D    180
     126     145                                                00010000D    181
     126       0               2       0                               0D    182
     126     147                                                00010000D    183
     126       0               2       0                               0D    184
     126     149                                                00010000D    185
     126       0               2       0                               0D    186
     126     151                                                00010000D    187
     126       0               2       0                               0D    188
     126     153                                                00010000D    189
     126       0               2       0                               0D    190
     126     155                                                00010000D    191
     126       0               2       0                               0D    192
     126     157                                                00010000D    193
     126       0               2       0                               0D    194
     126     159                                                00010000D    195
     126       0               2       0                               0D    196
     126     161                                                00010000D    197
     126       0               2       0                               0D    198
     126     163                                                00010000D    199
     126       0               2       0                               0D    200
     126     165                                                00010000D    201
     126       0               2       0                               0D    202
     126     167                                                00010000D    203
     126       0               3       0                               0D    204
     126     170                                                00010000D    205
     126       0               3       0                               0D    206
     126     173                                                00010000D    207
     126       0               2       0                               0D    208
     126     175                                                00010000D    209
     126       0               2       0                               0D    210
     126     177                                                00010000D    211
     126       0               2       0                               0D    212
     126     179                                                00010000D    213
     126       0               2       0                               0D    214
     126     181                                                00010000D    215
     126       0               2       0                               0D    216
     126     183                                                00010000D    217
     126       0               2       0                               0D    218
     128     185                                                00010000D    219
     128       0    -287       3       0                               0D    220
     128     188                                                00010000D    221
     128       0    -287       3       0                               0D    222
     128     191                                                00010000D    223
     128       0    -287       3       0                               0D    224
     128     194                                                00010000D    225
     128       0    -287       3       0                               0D    226
     128     197                                                00010000D    227
     128       0    -287       3       0                               0D    228
     128     200                                                00010000D    229
     128       0    -289      20       0                               0D    230
     128     220                                                00010000D    231
     128       0    -289       5       0                               0D    232
     128     225                                                00010000D    233
     128       0    -287       3       0                               0D    234
     128     228                                                00010000D    235
     128       0    -287       3       0                               0D    236
     128     231                                                00010000D    237
     128       0    -287       3       0                               0D    238
     128     234                                                00010000D    239
     128       0    -287       3       0                               0D    240
     128     237                                                00010000D    241
     128       0    -287       3       0                               0D    242
     128     240                                                00010000D    243
     128       0    -287       3       0                               0D    244
     128     243                                                00010000D    245
     128       0    -291       4       0                               0D    246
     128     247                                                00010000D    247
     128       0    -291       3       0                               0D    248
     128     250                                                00010000D    249
     128       0    -291       3       0                               0D    250
     128     253                                                00010000D    251
     128       0    -291       3       0                               0D    252
     128     256                                                00010000D    253
     128       0    -291       3       0                               0D    254
     128     259                                                00010000D    255
     128       0    -291       3       0                               0D    256
     128     262                                                00010000D    257
     128       0    -291       3       0                               0D    258
     128     265                                                00010000D    259
     128       0    -291       3       0                               0D    260
     128     268                                                00010000D    261
     128       0    -291       3       0                               0D    262
     128     271                                                00010000D    263
     128       0    -291       3       0                               0D    264
     128     274                                                00010000D    265
     128       0    -291       3       0                               0D    266
     128     277                                                00010000D    267
     128       0    -291       3       0                               0D    268
     502     280                                                00010000D    269
     502                       5       1                               0D    270
     502     285                                                00010000D    271
     502                       2       1                               0D    272
     502     287                                                00010000D    273
     502                       3       1                               0D    274
     504     290                                                00010001D    275
     504                       8       1                               0D    276
     504     298                                                00010001D    277
     504                       4       1                               0D    278
     504     302                                                00010001D    279
     504                       4       1                               0D    280
     406     306                                                00000000D    281
     406                       1      15                               0D    282
     406     307                                                00000000D    283
     406                       1      15                               0D    284
     406     308                                                00000000D    285
     406                       1      15                               0D    286
     314     309                                                00000200D    287
     314                       2       0                               0D    288
     314     311                                                00000200D    289
     314                       2       0                               0D    290
     314     313                                                00000200D    291
     314                       2       0                               0D    292
     314     315                                                00000200D    293
     314                       2       0                               0D    294
186,7,1,0,0,1,281;                                                     1P      1
186,9,1,0,0,1,283;                                                     3P      2
186,11,1,0,0,1,285;                                                    5P      3
514,13,13,1,15,1,17,1,19,1,21,1,23,1,25,1,27,1,29,1,31,1,33,1,         7P      4
35,1,37,1;                                                             7P      5
514,6,39,1,41,1,43,1,45,1,47,1,49,1;                                   9P      6
514,6,51,1,53,1,55,1,57,1,59,1,61,1;                                  11P      7
510,219,1,1,63;                                                       13P      8
510,221,1,1,65;                                                       15P      9
510,223,1,1,67;                                                       17P     10
510,225,1,1,69;                                                       19P     11
510,227,1,1,71;                                                       21P     12
510,229,1,1,73;                                                       23P     13
510,231,1,1,75;                                                       25P     14
510,233,1,1,77;                                                       27P     15
510,235,1,1,79;                                                       29P     16
510,237,1,1,81;                                                       31P     17
510,239,1,1,83;                                                       33P     18
510,241,3,1,85,87,89;                                                 35P     19
510,243,1,1,91;                                                       37P     20
510,245,1,1,93;                                                       39P     21
510,247,1,1,95;                                                       41P     22
510,249,1,1,97;                                                       43P     23
510,251,1,1,99;                                                       45P     24
510,253,1,1,101;                                                      47P     25
510,255,1,1,103;                                                      49P     26
510,257,1,1,105;                                                      51P     27
510,259,1,1,107;                                                      53P     28
510,261,1,1,109;                                                      55P     29
510,263,1,1,111;                                                      57P     30
510,265,1,1,113;                                                      59P     31
510,267,1,1,115;                                                      61P     32
508,4,0,275,1,0,0,0,275,2,1,0,0,275,3,0,0,0,275,4,0,0;                63P     33
508,4,0,275,5,0,0,0,275,4,1,0,0,275,6,0,0,0,275,7,0,0;                65P     34
508,4,0,275,8,0,0,0,275,7,1,0,0,275,9,0,0,0,275,10,0,0;               67P     35
508,4,0,275,11,0,0,0,275,10,1,0,0,275,12,0,0,0,275,2,0,0;             69P     36
508,4,0,275,12,1,0,0,275,9,1,0,0,275,6,1,0,0,275,3,1,0;               71P     37
508,4,0,275,13,0,0,0,275,14,1,0,0,275,15,1,0,0,275,14,0,0;            73P     38
508,1,0,275,15,0,0;                                                   75P     39
508,4,0,275,16,0,0,0,275,17,1,0,0,275,18,0,0,0,275,19,0,0;            77P     40
508,4,0,275,20,0,0,0,275,19,1,0,0,275,21,0,0,0,275,22,0,0;            79P     41
508,4,0,275,23,0,0,0,275,22,1,0,0,275,24,0,0,0,275,25,0,0;            81P     42
508,4,0,275,26,0,0,0,275,25,1,0,0,275,27,0,0,0,275,17,0,0;            83P     43
508,4,0,275,26,1,0,0,275,16,1,0,0,275,20,1,0,0,275,23,1,0;            85P     44
508,4,0,275,1,1,0,0,275,5,1,0,0,275,8,1,0,0,275,11,1,0;               87P     45
508,1,0,275,13,1,0;                                                   89P     46
508,4,0,275,27,1,0,0,275,24,1,0,0,275,21,1,0,0,275,18,1,0;            91P     47
508,4,0,277,1,1,0,0,277,2,1,0,0,277,3,0,0,0,277,4,0,0;                93P     48
508,4,0,277,5,0,0,0,277,4,1,0,0,277,6,0,0,0,277,7,0,0;                95P     49
508,4,0,277,8,1,0,0,277,7,1,0,0,277,9,0,0,0,277,10,0,0;               97P     50
508,4,0,277,11,1,0,0,277,10,1,0,0,277,12,0,0,0,277,2,0,0;             99P     51
508,4,0,277,12,1,0,0,277,9,1,0,0,277,6,1,0,0,277,3,1,0;              101P     52
508,4,0,277,11,0,0,0,277,1,0,0,0,277,5,1,0,0,277,8,0,0;              103P     53
508,4,0,279,1,1,0,0,279,2,1,0,0,279,3,0,0,0,279,4,0,0;               105P     54
508,4,0,279,5,1,0,0,279,4,1,0,0,279,6,0,0,0,279,7,0,0;               107P     55
508,4,0,279,8,1,0,0,279,7,1,0,0,279,9,0,0,0,279,10,0,0;              109P     56
508,4,0,279,11,1,0,0,279,10,1,0,0,279,12,0,0,0,279,2,0,0;            111P     57
508,4,0,279,12,1,0,0,279,9,1,0,0,279,6,1,0,0,279,3,1,0;              113P     58
508,4,0,279,11,0,0,0,279,1,0,0,0,279,5,0,0,0,279,8,0,0;              115P     59
126,1,1,0,0,1,0,-0.1475,-0.1475,0.0525,0.0525,1.,1.,-0.95,0.34,      117P     60
-0.75,1.05,0.34,-0.75,-0.1475,0.0525,0.,0.,0.;                       117P     61
126,1,1,0,0,1,0,0.,0.,0.126,0.126,1.,1.,-0.95,0.34,-0.75,-0.95,      119P     62
1.6,-0.75,0.,0.126,0.,0.,0.;                                         119P     63
126,1,1,0,0,1,0,-0.2,-0.2,0.,0.,1.,1.,1.05,1.6,-0.75,-0.95,1.6,      121P     64
-0.75,-0.2,0.,0.,0.,0.;                                              121P     65
126,1,1,0,0,1,0,0.,0.,0.126,0.126,1.,1.,1.05,0.34,-0.75,1.05,        123P     66
1.6,-0.75,0.,0.126,0.,0.,0.;                                         123P     67
126,1,1,0,0,1,0,-0.1125,-0.1125,0.0375,0.0375,1.,1.,1.05,0.34,       125P     68
-0.75,1.05,0.34,0.75,-0.1125,0.0375,0.,0.,0.;                        125P     69
126,1,1,0,0,1,0,0.05,0.05,0.2,0.2,1.,1.,1.05,1.6,0.75,1.05,1.6,      127P     70
-0.75,0.05,0.2,0.,0.,0.;                                             127P     71
126,1,1,0,0,1,0,0.,0.,0.126,0.126,1.,1.,1.05,0.34,0.75,1.05,1.6,     129P     72
0.75,0.,0.126,0.,0.,0.;                                              129P     73
126,1,1,0,0,1,0,-0.1525,-0.1525,0.0475,0.0475,1.,1.,1.05,0.34,       131P     74
0.75,-0.95,0.34,0.75,-0.1525,0.0475,0.,0.,0.;                        131P     75
126,1,1,0,0,1,0,0.,0.,0.2,0.2,1.,1.,-0.95,1.6,0.75,1.05,1.6,         133P     76
0.75,0.,0.2,0.,0.,0.;                                                133P     77
126,1,1,0,0,1,0,0.,0.,0.126,0.126,1.,1.,-0.95,0.34,0.75,-0.95,       135P     78
1.6,0.75,0.,0.126,0.,0.,0.;                                          135P     79
126,1,1,0,0,1,0,-0.1125,-0.1125,0.0375,0.0375,1.,1.,-0.95,0.34,      137P     80
0.75,-0.95,0.34,-0.75,-0.1125,0.0375,0.,0.,0.;                       137P     81
126,1,1,0,0,1,0,0.05,0.05,0.2,0.2,1.,1.,-0.95,1.6,-0.75,-0.95,       139P     82
1.6,0.75,0.05,0.2,0.,0.,0.;                                          139P     83
126,8,2,0,1,0,0,-3.14159265358979,-3.14159265358979,                 141P     84
-3.14159265358979,-1.5707963267949,-1.5707963267949,0.,0.,           141P     85
1.5707963267949,1.5707963267949,3.14159265358979,                    141P     86
3.14159265358979,3.14159265358979,1.,0.707106781186552,1.,           141P     87
0.707106781186552,1.,0.707106781186547,1.,0.707106781186547,1.,      141P     88
-1.320304524892,0.34,-1.28068341952714,-1.320304524892,0.34,         141P     89
-1.40568341952714,-1.195304524892,0.34,-1.40568341952714,            141P     90
-1.070304524892,0.34,-1.40568341952714,-1.070304524892,0.34,         141P     91
-1.28068341952714,-1.070304524892,0.34,-1.15568341952714,            141P     92
-1.195304524892,0.34,-1.15568341952714,-1.320304524892,0.34,         141P     93
-1.15568341952714,-1.320304524892,0.34,-1.28068341952714,            141P     94
-3.14159265358979,3.14159265358979,0.,0.,0.;                         141P     95
126,1,1,0,0,1,0,0.,0.,0.16,0.16,1.,1.,-1.320304524892,0.34,          143P     96
-1.28068341952714,-1.320304524892,0.32,-1.28068341952714,0.,         143P     97
0.16,0.,0.,0.;                                                       143P     98
126,8,2,0,1,0,0,-3.14159265358979,-3.14159265358979,                 145P     99
-3.14159265358979,-1.5707963267949,-1.5707963267949,0.,0.,           145P    100
1.5707963267949,1.5707963267949,3.14159265358979,                    145P    101
3.14159265358979,3.14159265358979,1.,0.707106781186552,1.,           145P    102
0.707106781186552,1.,0.707106781186547,1.,0.707106781186547,1.,      145P    103
-1.320304524892,0.32,-1.28068341952714,-1.320304524892,0.32,         145P    104
-1.40568341952714,-1.195304524892,0.32,-1.40568341952714,            145P    105
-1.070304524892,0.32,-1.40568341952714,-1.070304524892,0.32,         145P    106
-1.28068341952714,-1.070304524892,0.32,-1.15568341952714,            145P    107
-1.195304524892,0.32,-1.15568341952714,-1.320304524892,0.32,         145P    108
-1.15568341952714,-1.320304524892,0.32,-1.28068341952714,            145P    109
-3.14159265358979,3.14159265358979,0.,0.,0.;                         145P    110
126,1,1,0,0,1,0,0.,0.,0.28,0.28,1.,1.,1.4,0.34,-1.5,-1.4,0.34,       147P    111
-1.5,0.,0.28,0.,0.,0.;                                               147P    112
126,1,1,0,0,1,0,0.,0.,0.034,0.034,1.,1.,1.4,0.34,-1.5,1.4,0.,        149P    113
-1.5,0.,0.034,0.,0.,0.;                                              149P    114
126,1,1,0,0,1,0,-0.28,-0.28,0.,0.,1.,1.,-1.4,0.,-1.5,1.4,0.,         151P    115
-1.5,-0.28,0.,0.,0.,0.;                                              151P    116
126,1,1,0,0,1,0,0.,0.,0.034,0.034,1.,1.,-1.4,0.34,-1.5,-1.4,0.,      153P    117
-1.5,0.,0.034,0.,0.,0.;                                              153P    118
126,1,1,0,0,1,0,0.,0.,0.3,0.3,1.,1.,-1.4,0.34,-1.5,-1.4,0.34,        155P    119
1.5,0.,0.3,0.,0.,0.;                                                 155P    120
126,1,1,0,0,1,0,-0.3,-0.3,0.,0.,1.,1.,-1.4,0.,1.5,-1.4,0.,-1.5,      157P    121
-0.3,0.,0.,0.,0.;                                                    157P    122
126,1,1,0,0,1,0,0.,0.,0.034,0.034,1.,1.,-1.4,0.34,1.5,-1.4,0.,       159P    123
1.5,0.,0.034,0.,0.,0.;                                               159P    124
126,1,1,0,0,1,0,0.,0.,0.28,0.28,1.,1.,-1.4,0.34,1.5,1.4,0.34,        161P    125
1.5,0.,0.28,0.,0.,0.;                                                161P    126
126,1,1,0,0,1,0,-0.28,-0.28,0.,0.,1.,1.,1.4,0.,1.5,-1.4,0.,1.5,      163P    127
-0.28,0.,0.,0.,0.;                                                   163P    128
126,1,1,0,0,1,0,0.,0.,0.034,0.034,1.,1.,1.4,0.34,1.5,1.4,0.,1.5,     165P    129
0.,0.034,0.,0.,0.;                                                   165P    130
126,1,1,0,0,1,0,0.,0.,0.3,0.3,1.,1.,1.4,0.34,1.5,1.4,0.34,-1.5,      167P    131
0.,0.3,0.,0.,0.;                                                     167P    132
126,1,1,0,0,1,0,-0.3,-0.3,0.,0.,1.,1.,1.4,0.,-1.5,1.4,0.,1.5,        169P    133
-0.3,0.,0.,0.,0.;                                                    169P    134
126,1,1,0,0,1,0,0.2,0.2,0.25,0.25,1.,1.,-0.95,0.34,0.75,-0.95,       171P    135
0.34,1.25,0.2,0.25,0.,0.,0.;                                         171P    136
126,1,1,0,0,1,0,0.,0.,0.126,0.126,1.,1.,-0.95,0.34,1.25,-0.95,       173P    137
1.6,1.25,0.,0.126,0.,0.,0.;                                          173P    138
126,1,1,0,0,1,0,0.2,0.2,0.25,0.25,1.,1.,-0.95,1.6,0.75,-0.95,        175P    139
1.6,1.25,0.2,0.25,0.,0.,0.;                                          175P    140
126,1,1,0,0,1,0,0.,0.,0.126,0.126,1.,1.,-0.95,0.34,0.75,-0.95,       177P    141
1.6,0.75,0.,0.126,0.,0.,0.;                                          177P    142
126,1,1,0,0,1,0,0.,0.,0.2,0.2,1.,1.,-0.95,0.34,0.75,1.05,0.34,       179P    143
0.75,0.,0.2,0.,0.,0.;                                                179P    144
126,1,1,0,0,1,0,-0.2,-0.2,0.,0.,1.,1.,1.05,1.6,0.75,-0.95,1.6,       181P    145
0.75,-0.2,0.,0.,0.,0.;                                               181P    146
126,1,1,0,0,1,0,0.,0.,0.126,0.126,1.,1.,1.05,0.34,0.75,1.05,1.6,     183P    147
0.75,0.,0.126,0.,0.,0.;                                              183P    148
126,1,1,0,0,1,0,0.,0.,0.05,0.05,1.,1.,1.05,0.34,1.25,1.05,0.34,      185P    149
0.75,0.,0.05,0.,0.,0.;                                               185P    150
126,1,1,0,0,1,0,0.,0.,0.05,0.05,1.,1.,1.05,1.6,1.25,1.05,1.6,        187P    151
0.75,0.,0.05,0.,0.,0.;                                               187P    152
126,1,1,0,0,1,0,0.,0.,0.126,0.126,1.,1.,1.05,0.34,1.25,1.05,1.6,     189P    153
1.25,0.,0.126,0.,0.,0.;                                              189P    154
126,1,1,0,0,1,0,0.,0.,0.2,0.2,1.,1.,-0.95,0.34,1.25,1.05,0.34,       191P    155
1.25,0.,0.2,0.,0.,0.;                                                191P    156
126,1,1,0,0,1,0,0.,0.,0.2,0.2,1.,1.,-0.95,1.6,1.25,1.05,1.6,         193P    157
1.25,0.,0.2,0.,0.,0.;                                                193P    158
126,1,1,0,0,1,0,0.,0.,0.05,0.05,1.,1.,-0.95,0.34,-1.25,-0.95,        195P    159
0.34,-0.75,0.,0.05,0.,0.,0.;                                         195P    160
126,1,1,0,0,1,0,0.,0.,0.126,0.126,1.,1.,-0.95,0.34,-0.75,-0.95,      197P    161
1.6,-0.75,0.,0.126,0.,0.,0.;                                         197P    162
126,1,1,0,0,1,0,0.,0.,0.05,0.05,1.,1.,-0.95,1.6,-1.25,-0.95,1.6,     199P    163
-0.75,0.,0.05,0.,0.,0.;                                              199P    164
126,1,1,0,0,1,0,0.,0.,0.126,0.126,1.,1.,-0.95,0.34,-1.25,-0.95,      201P    165
1.6,-1.25,0.,0.126,0.,0.,0.;                                         201P    166
126,1,1,0,0,1,0,1.92592994438724D-33,1.92592994438724D-33,0.2,       203P    167
0.2,1.,1.,1.05,0.34,-1.25,-0.95,0.34,-1.25,1.92592994438724D-33,     203P    168
0.2,0.,0.,0.;                                                        203P    169
126,1,1,0,0,1,0,1.92592994438724D-33,1.92592994438724D-33,0.2,       205P    170
0.2,1.,1.,1.05,1.6,-1.25,-0.95,1.6,-1.25,1.92592994438724D-33,       205P    171
0.2,0.,0.,0.;                                                        205P    172
126,1,1,0,0,1,0,0.,0.,0.126,0.126,1.,1.,1.05,0.34,-1.25,1.05,        207P    173
1.6,-1.25,0.,0.126,0.,0.,0.;                                         207P    174
126,1,1,0,0,1,0,0.2,0.2,0.25,0.25,1.,1.,1.05,0.34,-0.75,1.05,        209P    175
0.34,-1.25,0.2,0.25,0.,0.,0.;                                        209P    176
126,1,1,0,0,1,0,0.2,0.2,0.25,0.25,1.,1.,1.05,1.6,-0.75,1.05,1.6,     211P    177
-1.25,0.2,0.25,0.,0.,0.;                                             211P    178
126,1,1,0,0,1,0,0.,0.,0.126,0.126,1.,1.,1.05,0.34,-0.75,1.05,        213P    179
1.6,-0.75,0.,0.126,0.,0.,0.;                                         213P    180
126,1,1,0,0,1,0,0.,0.,0.2,0.2,1.,1.,-0.95,0.34,-0.75,1.05,0.34,      215P    181
-0.75,0.,0.2,0.,0.,0.;                                               215P    182
126,1,1,0,0,1,0,0.,0.,0.2,0.2,1.,1.,-0.95,1.6,-0.75,1.05,1.6,        217P    183
-0.75,0.,0.2,0.,0.,0.;                                               217P    184
128,1,1,1,1,0,0,1,0,0,-0.001,-0.001,0.201,0.201,-0.001,-0.001,       219P    185
0.127,0.127,1.,1.,1.,1.,1.06,0.33,-0.75,-0.96,0.33,-0.75,1.06,       219P    186
1.61,-0.75,-0.96,1.61,-0.75,-0.001,0.201,-0.001,0.127;               219P    187
128,1,1,1,1,0,0,1,0,0,-0.001,-0.001,0.151,0.151,-0.001,-0.001,       221P    188
0.127,0.127,1.,1.,1.,1.,1.05,0.33,0.76,1.05,0.33,-0.76,1.05,         221P    189
1.61,0.76,1.05,1.61,-0.76,-0.001,0.151,-0.001,0.127;                 221P    190
128,1,1,1,1,0,0,1,0,0,-0.001,-0.001,0.201,0.201,-0.001,-0.001,       223P    191
0.127,0.127,1.,1.,1.,1.,-0.96,0.33,0.75,1.06,0.33,0.75,-0.96,        223P    192
1.61,0.75,1.06,1.61,0.75,-0.001,0.201,-0.001,0.127;                  223P    193
128,1,1,1,1,0,0,1,0,0,-0.001,-0.001,0.151,0.151,-0.001,-0.001,       225P    194
0.127,0.127,1.,1.,1.,1.,-0.95,0.33,-0.76,-0.95,0.33,0.76,-0.95,      225P    195
1.61,-0.76,-0.95,1.61,0.76,-0.001,0.151,-0.001,0.127;                225P    196
128,1,1,1,1,0,0,1,0,0,-0.076,-0.076,0.076,0.076,-0.101,-0.101,       227P    197
0.101,0.101,1.,1.,1.,1.,-0.96,1.6,-0.76,-0.96,1.6,0.76,1.06,1.6,     227P    198
-0.76,1.06,1.6,0.76,-0.076,0.076,-0.101,0.101;                       227P    199
128,1,8,1,2,0,1,0,0,1,0.,0.,0.16,0.16,-3.14159265358979,             229P    200
-3.14159265358979,-3.14159265358979,-1.5707963267949,                229P    201
-1.5707963267949,0.,0.,1.5707963267949,1.5707963267949,              229P    202
3.14159265358979,3.14159265358979,3.14159265358979,1.,1.,            229P    203
0.707106781186548,0.707106781186548,1.,1.,0.707106781186548,         229P    204
0.707106781186548,1.,1.,0.707106781186548,0.707106781186548,1.,      229P    205
1.,0.707106781186548,0.707106781186548,1.,1.,-1.320304524892,        229P    206
0.34,-1.28068341952714,-1.320304524892,0.32,-1.28068341952714,       229P    207
-1.320304524892,0.34,-1.40568341952714,-1.320304524892,0.32,         229P    208
-1.40568341952714,-1.195304524892,0.34,-1.40568341952714,            229P    209
-1.195304524892,0.32,-1.40568341952714,-1.070304524892,0.34,         229P    210
-1.40568341952714,-1.070304524892,0.32,-1.40568341952714,            229P    211
-1.070304524892,0.34,-1.28068341952714,-1.070304524892,0.32,         229P    212
-1.28068341952714,-1.070304524892,0.34,-1.15568341952714,            229P    213
-1.070304524892,0.32,-1.15568341952714,-1.195304524892,0.34,         229P    214
-1.15568341952714,-1.195304524892,0.32,-1.15568341952714,            229P    215
-1.320304524892,0.34,-1.15568341952714,-1.320304524892,0.32,         229P    216
-1.15568341952714,-1.320304524892,0.34,-1.28068341952714,            229P    217
-1.320304524892,0.32,-1.28068341952714,0.,0.16,                      229P    218
-3.14159265358979,3.14159265358979;                                  229P    219
128,1,1,1,1,0,0,1,0,0,-0.0135,-0.0135,0.0135,0.0135,-0.0135,         231P    220
-0.0135,0.0135,0.0135,1.,1.,1.,1.,-1.330304524892,0.32,              231P    221
-1.14568341952714,-1.060304524892,0.32,-1.14568341952714,            231P    222
-1.330304524892,0.32,-1.41568341952714,-1.060304524892,0.32,         231P    223
-1.41568341952714,-0.0135,0.0135,-0.0135,0.0135;                     231P    224
128,1,1,1,1,0,0,1,0,0,-0.001,-0.001,0.281,0.281,-0.001,-0.001,       233P    225
0.035,0.035,1.,1.,1.,1.,-1.41,0.35,-1.5,1.41,0.35,-1.5,-1.41,        233P    226
-0.01,-1.5,1.41,-0.01,-1.5,-0.001,0.281,-0.001,0.035;                233P    227
128,1,1,1,1,0,0,1,0,0,-0.001,-0.001,0.301,0.301,-0.001,-0.001,       235P    228
0.035,0.035,1.,1.,1.,1.,-1.4,0.35,1.51,-1.4,0.35,-1.51,-1.4,         235P    229
-0.01,1.51,-1.4,-0.01,-1.51,-0.001,0.301,-0.001,0.035;               235P    230
128,1,1,1,1,0,0,1,0,0,-0.001,-0.001,0.281,0.281,-0.001,-0.001,       237P    231
0.035,0.035,1.,1.,1.,1.,1.41,0.35,1.5,-1.41,0.35,1.5,1.41,-0.01,     237P    232
1.5,-1.41,-0.01,1.5,-0.001,0.281,-0.001,0.035;                       237P    233
128,1,1,1,1,0,0,1,0,0,-0.001,-0.001,0.301,0.301,-0.001,-0.001,       239P    234
0.035,0.035,1.,1.,1.,1.,1.4,0.35,-1.51,1.4,0.35,1.51,1.4,-0.01,      239P    235
-1.51,1.4,-0.01,1.51,-0.001,0.301,-0.001,0.035;                      239P    236
128,1,1,1,1,0,0,1,0,0,-0.141,-0.141,0.141,0.141,-0.151,-0.151,       241P    237
0.151,0.151,1.,1.,1.,1.,-1.41,0.34,1.51,1.41,0.34,1.51,-1.41,        241P    238
0.34,-1.51,1.41,0.34,-1.51,-0.141,0.141,-0.151,0.151;                241P    239
128,1,1,1,1,0,0,1,0,0,-0.151,-0.151,0.151,0.151,-0.141,-0.141,       243P    240
0.141,0.141,1.,1.,1.,1.,-1.41,0.,1.51,-1.41,0.,-1.51,1.41,0.,        243P    241
1.51,1.41,0.,-1.51,-0.151,0.151,-0.141,0.141;                        243P    242
128,1,1,1,1,0,0,1,0,0,-0.00100000000000001,-0.00100000000000001,     245P    243
0.051,0.051,-0.001,-0.001,0.127,0.127,1.,1.,1.,1.,-0.95,0.33,        245P    244
0.74,-0.95,0.33,1.26,-0.95,1.61,0.74,-0.95,1.61,1.26,                245P    245
-0.00100000000000001,0.051,-0.001,0.127;                             245P    246
128,1,1,1,1,0,0,1,0,0,-0.001,-0.001,0.201,0.201,-0.001,-0.001,       247P    247
0.127,0.127,1.,1.,1.,1.,1.06,0.33,0.75,-0.96,0.33,0.75,1.06,         247P    248
1.61,0.75,-0.96,1.61,0.75,-0.001,0.201,-0.001,0.127;                 247P    249
128,1,1,1,1,0,0,1,0,0,-0.001,-0.001,0.051,0.051,-0.001,-0.001,       249P    250
0.127,0.127,1.,1.,1.,1.,1.05,0.33,1.26,1.05,0.33,0.74,1.05,1.61,     249P    251
1.26,1.05,1.61,0.74,-0.001,0.051,-0.001,0.127;                       249P    252
128,1,1,1,1,0,0,1,0,0,-0.001,-0.001,0.201,0.201,-0.001,-0.001,       251P    253
0.127,0.127,1.,1.,1.,1.,-0.96,0.33,1.25,1.06,0.33,1.25,-0.96,        251P    254
1.61,1.25,1.06,1.61,1.25,-0.001,0.201,-0.001,0.127;                  251P    255
128,1,1,1,1,0,0,1,0,0,-0.026,-0.026,0.026,0.026,-0.101,-0.101,       253P    256
0.101,0.101,1.,1.,1.,1.,-0.96,1.6,0.74,-0.96,1.6,1.26,1.06,1.6,      253P    257
0.74,1.06,1.6,1.26,-0.026,0.026,-0.101,0.101;                        253P    258
128,1,1,1,1,0,0,1,0,0,-0.101,-0.101,0.101,0.101,-0.026,-0.026,       255P    259
0.026,0.026,1.,1.,1.,1.,1.06,0.34,1.26,-0.96,0.34,1.26,1.06,         255P    260
0.34,0.74,-0.96,0.34,0.74,-0.101,0.101,-0.026,0.026;                 255P    261
128,1,1,1,1,0,0,1,0,0,-0.001,-0.001,0.051,0.051,-0.001,-0.001,       257P    262
0.127,0.127,1.,1.,1.,1.,-0.95,0.33,-1.26,-0.95,0.33,-0.74,-0.95,     257P    263
1.61,-1.26,-0.95,1.61,-0.74,-0.001,0.051,-0.001,0.127;               257P    264
128,1,1,1,1,0,0,1,0,0,-0.001,-0.001,0.201,0.201,-0.001,-0.001,       259P    265
0.127,0.127,1.,1.,1.,1.,1.06,0.33,-1.25,-0.96,0.33,-1.25,1.06,       259P    266
1.61,-1.25,-0.96,1.61,-1.25,-0.001,0.201,-0.001,0.127;               259P    267
128,1,1,1,1,0,0,1,0,0,-0.001,-0.001,0.051,0.051,-0.001,-0.001,       261P    268
0.127,0.127,1.,1.,1.,1.,1.05,0.33,-0.74,1.05,0.33,-1.26,1.05,        261P    269
1.61,-0.74,1.05,1.61,-1.26,-0.001,0.051,-0.001,0.127;                261P    270
128,1,1,1,1,0,0,1,0,0,-0.001,-0.001,0.201,0.201,-0.001,-0.001,       263P    271
0.127,0.127,1.,1.,1.,1.,-0.96,0.33,-0.75,1.06,0.33,-0.75,-0.96,      263P    272
1.61,-0.75,1.06,1.61,-0.75,-0.001,0.201,-0.001,0.127;                263P    273
128,1,1,1,1,0,0,1,0,0,-0.026,-0.026,0.026,0.026,-0.101,-0.101,       265P    274
0.101,0.101,1.,1.,1.,1.,-0.96,1.6,-1.26,-0.96,1.6,-0.74,1.06,        265P    275
1.6,-1.26,1.06,1.6,-0.74,-0.026,0.026,-0.101,0.101;                  265P    276
128,1,1,1,1,0,0,1,0,0,-0.101,-0.101,0.101,0.101,-0.026,-0.026,       267P    277
0.026,0.026,1.,1.,1.,1.,1.06,0.34,-0.74,-0.96,0.34,-0.74,1.06,       267P    278
0.34,-1.26,-0.96,0.34,-1.26,-0.101,0.101,-0.026,0.026;               267P    279
502,18,-0.95,0.34,-0.75,1.05,0.34,-0.75,-0.95,1.6,-0.75,1.05,        269P    280
1.6,-0.75,1.05,0.34,0.75,1.05,1.6,0.75,-0.95,0.34,0.75,-0.95,        269P    281
1.6,0.75,-1.320304524892,0.34,-1.28068341952714,-1.320304524892,     269P    282
0.32,-1.28068341952714,1.4,0.34,-1.5,-1.4,0.34,-1.5,1.4,0.,-1.5,     269P    283
-1.4,0.,-1.5,-1.4,0.34,1.5,-1.4,0.,1.5,1.4,0.34,1.5,1.4,0.,1.5;      269P    284
502,8,-0.95,0.34,0.75,-0.95,0.34,1.25,-0.95,1.6,1.25,-0.95,1.6,      271P    285
0.75,1.05,0.34,0.75,1.05,1.6,0.75,1.05,0.34,1.25,1.05,1.6,1.25;      271P    286
502,8,-0.95,0.34,-1.25,-0.95,0.34,-0.75,-0.95,1.6,-0.75,-0.95,       273P    287
1.6,-1.25,1.05,0.34,-1.25,1.05,1.6,-1.25,1.05,0.34,-0.75,1.05,       273P    288
1.6,-0.75;                                                           273P    289
504,27,117,269,1,269,2,119,269,1,269,3,121,269,4,269,3,123,269,      275P    290
2,269,4,125,269,2,269,5,127,269,6,269,4,129,269,5,269,6,131,269,     275P    291
5,269,7,133,269,8,269,6,135,269,7,269,8,137,269,7,269,1,139,269,     275P    292
3,269,8,141,269,9,269,9,143,269,9,269,10,145,269,10,269,10,147,      275P    293
269,11,269,12,149,269,11,269,13,151,269,14,269,13,153,269,12,        275P    294
269,14,155,269,12,269,15,157,269,16,269,14,159,269,15,269,16,        275P    295
161,269,15,269,17,163,269,18,269,16,165,269,17,269,18,167,269,       275P    296
17,269,11,169,269,13,269,18;                                         275P    297
504,12,171,271,1,271,2,173,271,2,271,3,175,271,4,271,3,177,271,      277P    298
1,271,4,179,271,1,271,5,181,271,6,271,4,183,271,5,271,6,185,271,     277P    299
7,271,5,187,271,8,271,6,189,271,7,271,8,191,271,2,271,7,193,271,     277P    300
3,271,8;                                                             277P    301
504,12,195,273,1,273,2,197,273,2,273,3,199,273,4,273,3,201,273,      279P    302
1,273,4,203,273,5,273,1,205,273,6,273,4,207,273,5,273,6,209,273,     279P    303
7,273,5,211,273,8,273,6,213,273,7,273,8,215,273,2,273,7,217,273,     279P    304
3,273,8;                                                             279P    305
406,1,5HBody1;                                                       281P    306
406,1,5HBody2;                                                       283P    307
406,1,5HBody3;                                                       285P    308
314,9.80392156862745,9.80392156862745,9.80392156862745,23HPlasti     287P    309
c - Matte (Black);                                                   287P    310
314,96.4705882352941,96.4705882352941,95.2941176470588,23HPlasti     289P    311
c - Matte (White);                                                   289P    312
314,98.4313725490196,98.0392156862745,96.078431372549,14HSilver      291P    313
- Satin;                                                             291P    314
314,62.7450980392157,62.7450980392157,62.7450980392157,13HSteel      293P    315
- Satin;                                                             293P    316
S      1G      3D    294P    316                                        T      1
